<svg width="144" height="48" viewBox="0 0 144 48" fill="none" xmlns="http://www.w3.org/2000/svg">
<path d="M132.162 0.000156H11.4416C11.0016 0.000156 10.5668 0.000156 10.1279 0.002556C9.76056 0.004956 9.39611 0.011928 9.0252 0.017796C8.21942 0.0272782 7.41553 0.0981675 6.62052 0.229848C5.82663 0.364395 5.05761 0.618055 4.33946 0.982248C3.6222 1.34952 2.96681 1.82676 2.39708 2.39664C1.82436 2.96492 1.34696 3.62178 0.98322 4.34195C0.61848 5.06069 0.365569 5.83088 0.23322 6.62593C0.0996131 7.41998 0.0277181 8.22318 0.01818 9.02833C0.007044 9.39625 0.005868 9.7654 0 10.1334V37.8705C0.005868 38.2431 0.007044 38.604 0.01818 38.9768C0.027721 39.7819 0.0996161 40.585 0.23322 41.379C0.365203 42.1746 0.61813 42.9452 0.98322 43.6642C1.34679 44.382 1.82427 45.0362 2.39708 45.6014C2.96465 46.1738 3.62046 46.6513 4.33946 47.0158C5.0576 47.381 5.82654 47.6361 6.62052 47.7728C7.41566 47.9034 8.21947 47.9743 9.0252 47.9849C9.39611 47.9931 9.76056 47.9978 10.1279 47.9978C10.5668 48.0002 11.0016 48.0002 11.4416 48.0002H132.162C132.593 48.0002 133.031 48.0002 133.463 47.9978C133.828 47.9978 134.203 47.9931 134.569 47.9849C135.373 47.9749 136.175 47.9039 136.969 47.7728C137.765 47.6352 138.537 47.3801 139.259 47.0158C139.977 46.6511 140.632 46.1736 141.199 45.6014C141.771 45.034 142.249 44.3803 142.617 43.6642C142.98 42.9447 143.23 42.1741 143.36 41.379C143.494 40.5849 143.568 39.7819 143.583 38.9768C143.588 38.604 143.588 38.2431 143.588 37.8705C143.597 37.4345 143.597 37.001 143.597 36.5579V11.4435C143.597 11.0041 143.597 10.5681 143.588 10.1334C143.588 9.7654 143.588 9.39625 143.583 9.02828C143.568 8.22306 143.494 7.42004 143.36 6.62588C143.23 5.83129 142.979 5.06116 142.617 4.3419C141.876 2.89839 140.702 1.72339 139.259 0.98214C138.537 0.618837 137.765 0.365245 136.969 0.22974C136.175 0.0974793 135.373 0.0265653 134.569 0.017628C134.203 0.011772 133.828 0.00474 133.463 0.0024C133.031 0 132.593 0 132.162 0V0.000156Z" fill="#A6A6A6"/>
<path d="M10.1338 46.9498C9.76818 46.9498 9.41139 46.9451 9.04864 46.937C8.29718 46.9272 7.54748 46.8618 6.80568 46.7412C6.11398 46.6221 5.44392 46.4005 4.81759 46.0838C4.197 45.7696 3.63097 45.3577 3.14119 44.8638C2.64432 44.3758 2.23065 43.8097 1.91658 43.188C1.59904 42.5624 1.37929 41.8917 1.26498 41.1994C1.14152 40.4555 1.07473 39.7034 1.06518 38.9494C1.05757 38.6963 1.04761 37.8537 1.04761 37.8537V10.133C1.04761 10.133 1.05822 9.30332 1.06524 9.05956C1.07439 8.30678 1.14079 7.55579 1.26387 6.81308C1.3784 6.11891 1.59832 5.4463 1.91602 4.81856C2.22894 4.19734 2.64031 3.63084 3.13419 3.14102C3.62752 2.64655 4.19535 2.23253 4.817 1.91406C5.44189 1.59832 6.11069 1.37828 6.80098 1.26133C7.54522 1.13961 8.29753 1.0738 9.0516 1.06446L10.1344 1.0498H133.457L134.552 1.06504C135.3 1.07392 136.045 1.13914 136.782 1.26015C137.48 1.37857 138.155 1.60014 138.788 1.91757C140.033 2.55939 141.046 3.5748 141.686 4.82149C141.998 5.4449 142.215 6.11201 142.328 6.80019C142.452 7.54899 142.522 8.30589 142.536 9.06485C142.54 9.40469 142.54 9.76972 142.54 10.133C142.549 10.583 142.549 11.0113 142.549 11.4432V36.5576C142.549 36.9935 142.549 37.4189 142.54 37.8478C142.54 38.238 142.54 38.5955 142.535 38.9634C142.521 39.7089 142.453 40.4522 142.33 41.1876C142.218 41.8849 142 42.5608 141.682 43.1916C141.366 43.8065 140.954 44.3677 140.463 44.8545C139.973 45.351 139.406 45.7653 138.784 46.0815C138.154 46.4007 137.479 46.6231 136.782 46.7412C136.041 46.8624 135.291 46.9278 134.539 46.937C134.188 46.9451 133.82 46.9498 133.463 46.9498L132.162 46.9522L10.1338 46.9498Z" fill="black"/>
<path d="M29.7227 24.3618C29.7356 23.3602 30.0016 22.3781 30.496 21.507C30.9905 20.6358 31.6972 19.9039 32.5505 19.3793C32.0084 18.6051 31.2933 17.968 30.4619 17.5185C29.6305 17.069 28.7058 16.8196 27.7611 16.7901C25.746 16.5786 23.7925 17.9959 22.7657 17.9959C21.7189 17.9959 20.1379 16.8111 18.4355 16.8461C17.3342 16.8817 16.261 17.2019 15.3204 17.7756C14.3797 18.3492 13.6037 19.1568 13.068 20.1195C10.7472 24.1376 12.4783 30.0429 14.7014 33.2908C15.8137 34.8813 17.1136 36.6578 18.8145 36.5948C20.479 36.5258 21.1007 35.5334 23.1098 35.5334C25.1003 35.5334 25.6836 36.5948 27.419 36.5547C29.2051 36.5258 30.3304 34.9573 31.4036 33.3518C32.2028 32.2185 32.8178 30.9661 33.2257 29.6408C32.1881 29.2019 31.3026 28.4673 30.6796 27.5285C30.0567 26.5898 29.7239 25.4884 29.7227 24.3618V24.3618Z" fill="white"/>
<path d="M26.4447 14.6536C27.4185 13.4845 27.8983 11.9819 27.7821 10.4648C26.2943 10.6211 24.92 11.3322 23.933 12.4564C23.4505 13.0056 23.0809 13.6445 22.8454 14.3366C22.6099 15.0287 22.5131 15.7605 22.5606 16.49C23.3047 16.4977 24.041 16.3364 24.7137 16.0183C25.3865 15.7002 25.9784 15.2336 26.4447 14.6536Z" fill="white"/>
<path d="M50.7627 32.5672H45.0826L43.7186 36.595H41.3127L46.6928 21.6934H49.1924L54.5725 36.595H52.1256L50.7627 32.5672ZM45.6709 30.7086H50.1733L47.9538 24.1719H47.8917L45.6709 30.7086Z" fill="white"/>
<path d="M66.1916 31.1637C66.1916 34.5399 64.3846 36.709 61.6576 36.709C60.9669 36.7452 60.2799 36.5861 59.6753 36.2499C59.0708 35.9137 58.5731 35.4141 58.2393 34.8082H58.1877V40.1895H55.9576V25.7309H58.1162V27.5379H58.1573C58.5064 26.935 59.0125 26.438 59.6216 26.0997C60.2308 25.7615 60.9202 25.5948 61.6166 25.6172C64.374 25.6172 66.1916 27.7969 66.1916 31.1637ZM63.8994 31.1637C63.8994 28.9641 62.7627 27.518 61.0283 27.518C59.3244 27.518 58.1783 28.9946 58.1783 31.1637C58.1783 33.3528 59.3244 34.8188 61.0283 34.8188C62.7627 34.8188 63.8994 33.3833 63.8994 31.1637Z" fill="white"/>
<path d="M78.1494 31.1637C78.1494 34.5399 76.3424 36.709 73.6155 36.709C72.9247 36.7452 72.2377 36.586 71.6331 36.2499C71.0286 35.9137 70.5309 35.4141 70.1971 34.8082H70.1455V40.1895H67.9154V25.7309H70.074V27.5379H70.115C70.4642 26.935 70.9702 26.4379 71.5794 26.0997C72.1886 25.7615 72.878 25.5948 73.5744 25.6172C76.3319 25.6172 78.1494 27.7969 78.1494 31.1637ZM75.8572 31.1637C75.8572 28.9641 74.7205 27.518 72.9862 27.518C71.2822 27.518 70.1362 28.9946 70.1362 31.1637C70.1362 33.3528 71.2822 34.8188 72.9862 34.8188C74.7205 34.8188 75.8573 33.3833 75.8573 31.1637H75.8572Z" fill="white"/>
<path d="M86.0526 32.4434C86.2178 33.9212 87.6534 34.8914 89.6151 34.8914C91.4948 34.8914 92.8471 33.9211 92.8471 32.5887C92.8471 31.432 92.0315 30.7395 90.1002 30.2649L88.169 29.7996C85.4327 29.1387 84.1623 27.859 84.1623 25.7824C84.1623 23.2113 86.403 21.4453 89.5846 21.4453C92.7334 21.4453 94.892 23.2113 94.9647 25.7824H92.7135C92.5787 24.2953 91.3494 23.3977 89.5529 23.3977C87.7565 23.3977 86.5272 24.3059 86.5272 25.6277C86.5272 26.6813 87.3123 27.3012 89.233 27.7757L90.8748 28.1789C93.9322 28.9019 95.2026 30.1301 95.2026 32.3097C95.2026 35.0976 92.9818 36.8437 89.4498 36.8437C86.1451 36.8437 83.9139 35.1386 83.7697 32.4433L86.0526 32.4434Z" fill="white"/>
<path d="M100.015 23.1602V25.7313H102.081V27.4973H100.015V33.4867C100.015 34.4172 100.429 34.8508 101.337 34.8508C101.583 34.8465 101.827 34.8293 102.071 34.7992V36.5547C101.663 36.6309 101.248 36.6655 100.832 36.6578C98.6327 36.6578 97.7748 35.8316 97.7748 33.7246V27.4973H96.1952V25.7313H97.7748V23.1602H100.015Z" fill="white"/>
<path d="M103.278 31.1641C103.278 27.7457 105.291 25.5977 108.431 25.5977C111.581 25.5977 113.585 27.7457 113.585 31.1641C113.585 34.5918 111.591 36.7305 108.431 36.7305C105.271 36.7305 103.278 34.5918 103.278 31.1641ZM111.312 31.1641C111.312 28.8191 110.238 27.4352 108.431 27.4352C106.624 27.4352 105.55 28.8297 105.55 31.1641C105.55 33.5184 106.624 34.8918 108.431 34.8918C110.238 34.8918 111.312 33.5184 111.312 31.1641H111.312Z" fill="white"/>
<path d="M115.423 25.7308H117.55V27.58H117.602C117.746 27.0025 118.084 26.4921 118.56 26.1346C119.036 25.7771 119.62 25.5944 120.215 25.6171C120.472 25.6162 120.728 25.6441 120.979 25.7003V27.7863C120.655 27.6871 120.316 27.6416 119.977 27.6515C119.653 27.6384 119.33 27.6955 119.03 27.8189C118.731 27.9424 118.461 28.1293 118.24 28.3668C118.02 28.6042 117.853 28.8867 117.751 29.1947C117.65 29.5027 117.617 29.829 117.653 30.1511V36.5953H115.423L115.423 25.7308Z" fill="white"/>
<path d="M131.261 33.4047C130.961 35.3769 129.04 36.7305 126.583 36.7305C123.423 36.7305 121.461 34.6129 121.461 31.2156C121.461 27.8078 123.433 25.5977 126.489 25.5977C129.495 25.5977 131.385 27.6625 131.385 30.9566V31.7207H123.712V31.8555C123.677 32.2553 123.727 32.6581 123.859 33.0371C123.991 33.4161 124.202 33.7627 124.479 34.0537C124.755 34.3448 125.09 34.5737 125.462 34.7253C125.834 34.8768 126.233 34.9476 126.635 34.9328C127.162 34.9822 127.69 34.8601 128.143 34.5848C128.595 34.3095 128.946 33.8956 129.144 33.4047L131.261 33.4047ZM123.723 30.1621H129.154C129.174 29.8026 129.12 29.4428 128.994 29.1054C128.868 28.7679 128.674 28.4601 128.424 28.2012C128.174 27.9422 127.873 27.7378 127.54 27.6008C127.207 27.4637 126.849 27.397 126.489 27.4047C126.126 27.4025 125.766 27.4723 125.43 27.61C125.094 27.7477 124.789 27.9506 124.531 28.2069C124.274 28.4633 124.07 28.768 123.931 29.1036C123.793 29.4392 123.722 29.799 123.723 30.1621V30.1621Z" fill="white"/>
<path d="M45.3914 10.4779C45.859 10.4443 46.3281 10.5149 46.7651 10.6847C47.202 10.8544 47.5958 11.1189 47.9181 11.4593C48.2404 11.7996 48.4832 12.2073 48.6289 12.6528C48.7745 13.0983 48.8195 13.5706 48.7606 14.0357C48.7606 16.3232 47.5243 17.6381 45.3914 17.6381H42.8051V10.4779H45.3914ZM43.9172 16.6255H45.2672C45.6013 16.6454 45.9356 16.5906 46.2459 16.4651C46.5561 16.3396 46.8345 16.1464 47.0607 15.8998C47.2869 15.6531 47.4552 15.3591 47.5534 15.0391C47.6517 14.7192 47.6773 14.3814 47.6285 14.0503C47.6738 13.7205 47.6455 13.3847 47.5458 13.0671C47.446 12.7495 47.2773 12.4579 47.0516 12.2132C46.8259 11.9685 46.5489 11.7767 46.2404 11.6516C45.9319 11.5266 45.5996 11.4713 45.2672 11.4897H43.9172V16.6255Z" fill="white"/>
<path d="M50.0168 14.9335C49.9829 14.5784 50.0235 14.2202 50.1361 13.8817C50.2487 13.5432 50.4308 13.232 50.6707 12.968C50.9107 12.704 51.2031 12.4931 51.5293 12.3488C51.8556 12.2044 52.2083 12.1299 52.5651 12.1299C52.9218 12.1299 53.2746 12.2044 53.6008 12.3488C53.927 12.4931 54.2195 12.704 54.4594 12.968C54.6993 13.232 54.8814 13.5432 54.9941 13.8817C55.1067 14.2202 55.1473 14.5784 55.1133 14.9335C55.1479 15.289 55.1078 15.6478 54.9955 15.9868C54.8832 16.3258 54.7012 16.6376 54.4612 16.9021C54.2212 17.1666 53.9285 17.378 53.602 17.5226C53.2754 17.6673 52.9222 17.742 52.5651 17.742C52.2079 17.742 51.8547 17.6673 51.5282 17.5226C51.2016 17.378 50.909 17.1666 50.669 16.9021C50.429 16.6376 50.247 16.3258 50.1347 15.9868C50.0224 15.6478 49.9822 15.289 50.0168 14.9335V14.9335ZM54.0164 14.9335C54.0164 13.7623 53.4903 13.0773 52.5668 13.0773C51.6399 13.0773 51.1184 13.7623 51.1184 14.9335C51.1184 16.1142 51.6399 16.7939 52.5668 16.7939C53.4903 16.7939 54.0164 16.1095 54.0164 14.9335H54.0164Z" fill="white"/>
<path d="M61.8879 17.6379H60.7817L59.6649 13.6582H59.5805L58.4684 17.6379H57.3727L55.8832 12.2344H56.9649L57.9329 16.3576H58.0125L59.1235 12.2344H60.1465L61.2575 16.3576H61.3418L62.3051 12.2344H63.3715L61.8879 17.6379Z" fill="white"/>
<path d="M64.6242 12.2336H65.6508V13.092H65.7305C65.8657 12.7837 66.0937 12.5253 66.3827 12.3527C66.6718 12.1802 67.0075 12.1021 67.343 12.1293C67.6059 12.1096 67.8699 12.1492 68.1154 12.2453C68.3609 12.3414 68.5817 12.4916 68.7613 12.6846C68.9409 12.8776 69.0748 13.1086 69.1531 13.3603C69.2313 13.6121 69.2519 13.8783 69.2133 14.1391V17.6371H68.1469V14.4069C68.1469 13.5385 67.7696 13.1067 66.9809 13.1067C66.8024 13.0984 66.6242 13.1288 66.4585 13.1958C66.2928 13.2628 66.1436 13.3648 66.0211 13.4948C65.8985 13.6249 65.8055 13.7799 65.7485 13.9493C65.6915 14.1186 65.6717 14.2983 65.6906 14.476V17.6372H64.6242L64.6242 12.2336Z" fill="white"/>
<path d="M70.9125 10.125H71.9789V17.6379H70.9125V10.125Z" fill="white"/>
<path d="M73.4613 14.9336C73.4274 14.5785 73.4681 14.2202 73.5807 13.8817C73.6933 13.5432 73.8755 13.232 74.1154 12.968C74.3554 12.704 74.6479 12.4931 74.9741 12.3488C75.3003 12.2044 75.6531 12.1299 76.0099 12.1299C76.3666 12.1299 76.7194 12.2044 77.0457 12.3488C77.3719 12.4931 77.6644 12.704 77.9044 12.968C78.1443 13.232 78.3264 13.5432 78.4391 13.8817C78.5517 14.2202 78.5924 14.5785 78.5584 14.9336C78.593 15.2891 78.5528 15.6479 78.4405 15.9869C78.3281 16.326 78.1461 16.6377 77.9061 16.9022C77.6661 17.1667 77.3734 17.3781 77.0468 17.5227C76.7202 17.6673 76.367 17.7421 76.0099 17.7421C75.6527 17.7421 75.2995 17.6673 74.973 17.5227C74.6464 17.3781 74.3537 17.1667 74.1137 16.9022C73.8737 16.6377 73.6916 16.326 73.5793 15.9869C73.467 15.6479 73.4268 15.2891 73.4613 14.9336V14.9336ZM77.461 14.9336C77.461 13.7624 76.9348 13.0774 76.0113 13.0774C75.0844 13.0774 74.563 13.7624 74.563 14.9336C74.563 16.1143 75.0844 16.794 76.0113 16.794C76.9348 16.794 77.461 16.1096 77.461 14.9336H77.461Z" fill="white"/>
<path d="M79.6811 16.1096C79.6811 15.1369 80.4053 14.5762 81.6908 14.4965L83.1545 14.4121V13.9457C83.1545 13.375 82.7772 13.0527 82.0483 13.0527C81.453 13.0527 81.0405 13.2713 80.9221 13.6533H79.8897C79.9987 12.7252 80.8717 12.1299 82.0975 12.1299C83.4522 12.1299 84.2162 12.8043 84.2162 13.9457V17.6377H83.1897V16.8783H83.1053C82.9341 17.1507 82.6936 17.3728 82.4084 17.5218C82.1233 17.6709 81.8037 17.7416 81.4823 17.7267C81.2554 17.7503 81.0262 17.7261 80.8092 17.6557C80.5923 17.5852 80.3926 17.4701 80.2229 17.3178C80.0532 17.1654 79.9173 16.9792 79.824 16.7711C79.7307 16.563 79.682 16.3376 79.6811 16.1096V16.1096ZM83.1545 15.6478V15.1961L81.835 15.2805C81.0909 15.3303 80.7533 15.5834 80.7533 16.0598C80.7533 16.5461 81.1752 16.8291 81.7553 16.8291C81.9253 16.8463 82.097 16.8291 82.2602 16.7786C82.4234 16.7281 82.5748 16.6453 82.7054 16.5351C82.8359 16.4249 82.9429 16.2895 83.0201 16.1371C83.0973 15.9847 83.143 15.8183 83.1545 15.6478V15.6478Z" fill="white"/>
<path d="M85.6178 14.9338C85.6178 13.2264 86.4955 12.1447 87.8608 12.1447C88.1985 12.1292 88.5336 12.2101 88.8271 12.3779C89.1205 12.5458 89.3601 12.7937 89.5178 13.0927H89.5975V10.125H90.6639V17.6379H89.642V16.7842H89.5577C89.3877 17.0812 89.1398 17.326 88.8407 17.4922C88.5416 17.6584 88.2027 17.7395 87.8608 17.7269C86.4862 17.727 85.6178 16.6453 85.6178 14.9338ZM86.7194 14.9338C86.7194 16.0799 87.2596 16.7696 88.1632 16.7696C89.062 16.7696 89.6174 16.07 89.6174 14.9385C89.6174 13.8123 89.0561 13.1028 88.1632 13.1028C87.2655 13.1028 86.7194 13.7971 86.7194 14.9338H86.7194Z" fill="white"/>
<path d="M95.076 14.9335C95.042 14.5784 95.0827 14.2202 95.1953 13.8817C95.3079 13.5432 95.49 13.232 95.7299 12.968C95.9698 12.704 96.2623 12.4931 96.5885 12.3488C96.9147 12.2044 97.2675 12.1299 97.6242 12.1299C97.981 12.1299 98.3338 12.2044 98.66 12.3488C98.9862 12.4931 99.2786 12.704 99.5186 12.968C99.7585 13.232 99.9406 13.5432 100.053 13.8817C100.166 14.2202 100.206 14.5784 100.172 14.9335C100.207 15.289 100.167 15.6478 100.055 15.9868C99.9423 16.3258 99.7603 16.6376 99.5203 16.9021C99.2804 17.1666 98.9877 17.378 98.6611 17.5226C98.3346 17.6673 97.9814 17.742 97.6242 17.742C97.2671 17.742 96.9139 17.6673 96.5873 17.5226C96.2608 17.378 95.9681 17.1666 95.7281 16.9021C95.4881 16.6376 95.3061 16.3258 95.1938 15.9868C95.0815 15.6478 95.0414 15.289 95.076 14.9335V14.9335ZM99.0756 14.9335C99.0756 13.7623 98.5494 13.0773 97.626 13.0773C96.6991 13.0773 96.1776 13.7623 96.1776 14.9335C96.1776 16.1142 96.6991 16.7939 97.626 16.7939C98.5494 16.7939 99.0756 16.1095 99.0756 14.9335Z" fill="white"/>
<path d="M101.603 12.2336H102.63V13.092H102.71C102.845 12.7837 103.073 12.5253 103.362 12.3527C103.651 12.1802 103.987 12.1021 104.322 12.1293C104.585 12.1096 104.849 12.1492 105.095 12.2453C105.34 12.3414 105.561 12.4916 105.74 12.6846C105.92 12.8776 106.054 13.1086 106.132 13.3603C106.21 13.6121 106.231 13.8783 106.192 14.1391V17.6371H105.126V14.4069C105.126 13.5385 104.749 13.1067 103.96 13.1067C103.781 13.0984 103.603 13.1288 103.438 13.1958C103.272 13.2628 103.123 13.3648 103 13.4948C102.878 13.6249 102.785 13.7799 102.728 13.9493C102.671 14.1186 102.651 14.2983 102.67 14.476V17.6372H101.603V12.2336Z" fill="white"/>
<path d="M112.218 10.8887V12.2586H113.389V13.1568H112.218V15.9354C112.218 16.5014 112.451 16.7492 112.982 16.7492C113.118 16.7488 113.254 16.7406 113.389 16.7246V17.6129C113.197 17.6471 113.003 17.6654 112.809 17.6674C111.623 17.6674 111.151 17.2502 111.151 16.2084V13.1568H110.293V12.2585H111.151V10.8887H112.218Z" fill="white"/>
<path d="M114.846 10.125H115.903V13.1027H115.987C116.129 12.7916 116.363 12.5316 116.658 12.3584C116.953 12.1852 117.294 12.1071 117.635 12.1348C117.896 12.1205 118.158 12.1642 118.4 12.2627C118.643 12.3611 118.861 12.5119 119.039 12.7043C119.217 12.8967 119.35 13.126 119.429 13.3757C119.508 13.6255 119.53 13.8896 119.495 14.1492V17.6379H118.428V14.4123C118.428 13.5492 118.026 13.1121 117.273 13.1121C117.089 13.0971 116.905 13.1223 116.732 13.1859C116.56 13.2496 116.403 13.3502 116.274 13.4807C116.144 13.6112 116.045 13.7684 115.982 13.9413C115.92 14.1143 115.896 14.2988 115.912 14.482V17.6379H114.846L114.846 10.125Z" fill="white"/>
<path d="M125.714 16.1788C125.569 16.6726 125.255 17.0998 124.827 17.3856C124.399 17.6714 123.884 17.7976 123.372 17.7421C123.016 17.7515 122.662 17.6833 122.335 17.5423C122.008 17.4012 121.716 17.1907 121.478 16.9253C121.241 16.66 121.064 16.3461 120.96 16.0055C120.856 15.6649 120.827 15.3058 120.876 14.953C120.829 14.5992 120.858 14.2392 120.962 13.8976C121.065 13.556 121.241 13.2407 121.478 12.973C121.714 12.7053 122.005 12.4915 122.331 12.3461C122.657 12.2006 123.01 12.1269 123.367 12.13C124.871 12.13 125.778 13.1572 125.778 14.854V15.2261H121.962V15.2858C121.946 15.4841 121.971 15.6837 122.036 15.8718C122.1 16.0599 122.204 16.2324 122.339 16.3781C122.475 16.5239 122.639 16.6397 122.822 16.7182C123.005 16.7967 123.202 16.8361 123.401 16.8338C123.656 16.8645 123.915 16.8185 124.144 16.7019C124.373 16.5852 124.562 16.4031 124.687 16.1788L125.714 16.1788ZM121.962 14.4374H124.692C124.705 14.256 124.68 14.0739 124.619 13.9026C124.558 13.7314 124.462 13.5748 124.337 13.443C124.211 13.3111 124.06 13.207 123.892 13.1371C123.724 13.0673 123.543 13.0334 123.362 13.0376C123.177 13.0353 122.994 13.0699 122.823 13.1394C122.652 13.209 122.497 13.312 122.367 13.4425C122.236 13.5729 122.133 13.7282 122.064 13.899C121.994 14.0699 121.96 14.253 121.962 14.4374H121.962Z" fill="white"/>
</svg>
