<svg width="17" height="15" viewBox="0 0 17 15" fill="none" xmlns="http://www.w3.org/2000/svg">
<path d="M16.8664 7.05012L16.9995 7.17715V6.79104C16.9995 5.94078 16.4119 5.24857 15.6901 5.24857H14.5361C13.7286 1.83555 10.9777 0 6.88548 0C4.27958 0 3.94484 0 1.47697 0C1.47697 0 2.21793 0.63169 2.21793 2.62079V5.25058H0.853352C0.588128 5.25058 0.339172 5.14654 0.133105 4.94999L0 4.82295V5.20906C0 6.05982 0.587635 6.75153 1.30936 6.75153H2.21842V8.25148H0.853845C0.588621 8.25148 0.339665 8.14794 0.133598 7.95088L0.000492982 7.82385V8.20946C0.000492982 9.05972 0.588128 9.75093 1.30985 9.75093H2.21891V12.4962C2.21891 14.4293 1.47796 15 1.47796 15H6.88647C11.1074 15 13.7705 13.1514 14.5464 9.74942H16.1466C16.4119 9.74942 16.6608 9.85295 16.8669 10.0495L17 10.1766V9.79094C17 8.94068 16.4124 8.24897 15.6906 8.24897H14.7589C14.7747 8.0049 14.7831 7.75533 14.7831 7.49875C14.7831 7.24217 14.7742 6.9931 14.7579 6.74902H16.1466C16.4114 6.74902 16.6608 6.85256 16.8669 7.04961L16.8664 7.05012ZM4.43438 0.750725H6.69519C9.73689 0.750725 11.4988 2.11764 12.0243 5.24907L4.43438 5.25007V0.750725ZM6.71442 14.2508H4.43388V9.75042L12.0194 9.74942C11.5279 12.5833 9.94543 14.1698 6.71442 14.2508ZM12.1929 7.50025C12.1929 7.75683 12.1875 8.0069 12.1762 8.24997L4.43438 8.25097V6.75102L12.1767 6.75003C12.1875 6.9921 12.1929 7.24167 12.1929 7.50025Z" fill="#8A44D9"/>
</svg>
