<svg width="20" height="48" viewBox="0 0 20 48" fill="none" xmlns="http://www.w3.org/2000/svg">
<path d="M0 9.84046C0 8.48093 0.253565 7.20771 0.760694 6.02081C1.26782 4.83391 1.96917 3.79268 2.86474 2.89711C3.76031 1.99075 4.80154 1.28401 5.98844 0.776879C7.17534 0.25896 8.44855 0 9.80809 0C11.1676 0 12.4408 0.25896 13.6277 0.776879C14.8146 1.28401 15.8559 1.99075 16.7514 2.89711C17.647 3.79268 18.343 4.83391 18.8393 6.02081C19.3464 7.20771 19.6 8.48093 19.6 9.84046C19.6 11.2863 19.3087 12.6405 18.726 13.9029C18.1541 15.1545 17.3611 16.2389 16.3468 17.1561C15.3434 18.0732 14.1834 18.7476 12.8671 19.1792V39.3295C12.8671 40.4193 12.7538 41.4659 12.5272 42.4694C12.3114 43.4836 12.0362 44.39 11.7017 45.1884C11.3672 45.9869 11.0274 46.6181 10.6821 47.0821C10.3368 47.5461 10.0455 47.778 9.80809 47.778C9.55992 47.778 9.2632 47.5461 8.91792 47.0821C8.57264 46.6181 8.22736 45.9815 7.88208 45.1723C7.54759 44.3738 7.26705 43.4674 7.04046 42.4532C6.81387 41.4497 6.70058 40.4085 6.70058 39.3295V19.1792C5.39499 18.7368 4.24046 18.057 3.23699 17.1399C2.23353 16.2227 1.44046 15.1383 0.857804 13.8867C0.285935 12.6351 0 11.2863 0 9.84046ZM7.07283 10.4555C8.00077 10.4555 8.78844 10.121 9.43584 9.45202C10.094 8.77225 10.4231 7.98459 10.4231 7.08902C10.4231 6.17187 10.094 5.3842 9.43584 4.72601C8.78844 4.06782 8.00077 3.73873 7.07283 3.73873C6.47938 3.73873 5.92909 3.88979 5.42197 4.19191C4.91484 4.49403 4.50482 4.89865 4.19191 5.40578C3.879 5.91291 3.72254 6.47399 3.72254 7.08902C3.72254 7.68247 3.879 8.23815 4.19191 8.75607C4.50482 9.2632 4.91484 9.67322 5.42197 9.98613C5.92909 10.299 6.47938 10.4555 7.07283 10.4555Z" fill="#8A44D9"/>
</svg>
