<svg width="162" height="48" viewBox="0 0 162 48" fill="none" xmlns="http://www.w3.org/2000/svg">
<g clip-path="url(#clip0_1926_2719)">
<path fill-rule="evenodd" clip-rule="evenodd" d="M155.998 48H6.00221C2.69414 48 0 45.2948 0 42V6C0 2.69327 2.69414 0 6.00221 0H155.998C159.303 0 162 2.69327 162 6V42C162 45.2948 159.303 48 155.998 48Z" fill="black"/>
<path fill-rule="evenodd" clip-rule="evenodd" d="M155.998 0.960598C158.772 0.960598 161.043 3.22594 161.043 6V42C161.043 44.7741 158.787 47.0394 155.998 47.0394H6.00221C3.2276 47.0394 0.956658 44.7741 0.956658 42V6C0.956658 3.22594 3.2127 0.960598 6.00221 0.960598C6.00221 0.960598 155.998 0.960598 155.998 0.960598ZM155.998 0H6.00221C2.69414 0 0 2.70524 0 6V42C0 45.3067 2.69414 48 6.00221 48H155.998C159.303 48 162 45.3067 162 42V6C162 2.70524 159.303 0 155.998 0Z" fill="#A6A6A6"/>
<path d="M85.342 15.8787C84.2602 15.8787 83.3482 15.4987 82.627 14.7506C81.9118 14.0234 81.5124 13.0209 81.5303 11.9974C81.5303 10.9052 81.8998 9.98049 82.627 9.24732C83.3453 8.49919 84.2572 8.11914 85.339 8.11914C86.4089 8.11914 87.3209 8.49919 88.054 9.24732C88.7812 10.0044 89.1507 10.9291 89.1507 11.9974C89.1388 13.0927 88.7693 14.0174 88.054 14.7476C87.3358 15.5017 86.4238 15.8787 85.342 15.8787ZM53.1526 15.8787C52.0946 15.8787 51.1767 15.5047 50.4257 14.7655C49.6806 14.0294 49.3022 13.0987 49.3022 12.0004C49.3022 10.9022 49.6806 9.97151 50.4257 9.23535C51.1618 8.4962 52.0797 8.12213 53.1526 8.12213C53.6771 8.12213 54.1867 8.22687 54.6755 8.43934C55.1553 8.64582 55.5457 8.92712 55.8348 9.27126L55.9063 9.35804L55.0987 10.1541L55.0152 10.0553C54.5593 9.51066 53.9483 9.24433 53.1407 9.24433C52.4195 9.24433 51.7906 9.50168 51.2721 10.0104C50.7505 10.5221 50.4853 11.1925 50.4853 12.0034C50.4853 12.8144 50.7505 13.4847 51.2721 13.9964C51.7906 14.5052 52.4195 14.7625 53.1407 14.7625C53.9096 14.7625 54.5563 14.5052 55.0599 13.9964C55.358 13.6972 55.5427 13.2782 55.6083 12.7486H53.0185V11.6294H56.7199L56.7348 11.7311C56.7617 11.9196 56.7885 12.1142 56.7885 12.2937C56.7885 13.3261 56.4785 14.161 55.8646 14.7775C55.1672 15.5077 54.2553 15.8787 53.1526 15.8787ZM95.9516 15.7201H94.8102L91.3144 10.1032L91.3442 11.1147V15.7171H90.2027V8.28074H91.5051L91.5409 8.3376L94.8281 13.6284L94.7983 12.6199V8.28074H95.9516V15.7201V15.7201ZM76.7649 15.7201H75.6086V9.39994H73.6029V8.28074H78.7676V9.39994H76.7619V15.7201H76.7649ZM72.6612 15.7201H71.5078V8.28074H72.6612V15.7201ZM66.1792 15.7201H65.0258V9.39994H63.0201V8.28074H68.1848V9.39994H66.1792V15.7201ZM62.29 15.7082H57.8673V8.28074H62.29V9.39994H59.0236V11.4408H61.9711V12.5481H59.0236V14.589H62.29V15.7082ZM83.4734 13.9815C83.989 14.4992 84.6148 14.7595 85.342 14.7595C86.09 14.7595 86.701 14.5052 87.2106 13.9815C87.7172 13.4728 87.9735 12.8054 87.9735 12.0004C87.9735 11.1955 87.7172 10.5251 87.2136 10.0194C86.698 9.50168 86.0692 9.24134 85.345 9.24134C84.5969 9.24134 83.986 9.4957 83.4794 10.0194C82.9727 10.5281 82.7164 11.1955 82.7164 12.0004C82.7164 12.8054 82.9697 13.4758 83.4734 13.9815Z" fill="white"/>
<path fill-rule="evenodd" clip-rule="evenodd" d="M81.4231 26.1063C78.6068 26.1063 76.3239 28.2519 76.3239 31.2115C76.3239 34.1442 78.6217 36.3168 81.4231 36.3168C84.2394 36.3168 86.5223 34.1562 86.5223 31.2115C86.5223 28.2519 84.2394 26.1063 81.4231 26.1063ZM81.4231 34.2938C79.8823 34.2938 78.5561 33.013 78.5561 31.1996C78.5561 29.3592 79.8853 28.1053 81.4231 28.1053C82.9639 28.1053 84.2901 29.3592 84.2901 31.1996C84.2931 33.025 82.9639 34.2938 81.4231 34.2938ZM70.2978 26.1063C67.4815 26.1063 65.1986 28.2519 65.1986 31.2115C65.1986 34.1442 67.4964 36.3168 70.2978 36.3168C73.1142 36.3168 75.397 34.1562 75.397 31.2115C75.397 28.2519 73.1112 26.1063 70.2978 26.1063ZM70.2978 34.2938C68.757 34.2938 67.4308 33.013 67.4308 31.1996C67.4308 29.3592 68.76 28.1053 70.2978 28.1053C71.8386 28.1053 73.1648 29.3592 73.1648 31.1996C73.1648 33.025 71.8386 34.2938 70.2978 34.2938ZM57.0596 27.6654V29.826H62.2243C62.0664 31.038 61.667 31.9327 61.0561 32.5462C60.2991 33.3063 59.1309 34.1322 57.0715 34.1322C53.8975 34.1322 51.415 31.5587 51.415 28.3716C51.415 25.1846 53.8975 22.611 57.0715 22.611C58.7851 22.611 60.0339 23.2903 60.9607 24.1582L62.4866 22.626C61.1991 21.3871 59.4855 20.4385 57.0834 20.4385C52.7293 20.4385 49.0755 23.9996 49.0755 28.3597C49.0755 32.7317 52.7263 36.2809 57.0834 36.2809C59.4348 36.2809 61.1991 35.5088 62.5939 34.0544C64.0155 32.627 64.4655 30.613 64.4655 28.9881C64.4655 28.4824 64.4268 28.0275 64.3463 27.6415H57.0566C57.0596 27.6385 57.0596 27.6654 57.0596 27.6654ZM111.208 29.3472C110.781 28.2011 109.494 26.0943 106.854 26.0943C104.237 26.0943 102.061 28.1622 102.061 31.1996C102.061 34.0664 104.213 36.3048 107.107 36.3048C109.431 36.3048 110.784 34.8774 111.342 34.0395L109.616 32.8784C109.044 33.7312 108.248 34.2908 107.119 34.2908C105.977 34.2908 105.179 33.7701 104.648 32.7437L111.446 29.9158C111.446 29.9188 111.208 29.3472 111.208 29.3472ZM104.276 31.0529C104.222 29.0809 105.802 28.0784 106.931 28.0784C107.822 28.0784 108.564 28.5183 108.818 29.1587L104.276 31.0529ZM98.7532 35.9996H100.985V21.0011H98.7532V35.9996ZM95.0875 27.2405H95.0071C94.5034 26.639 93.5467 26.0943 92.3248 26.0943C89.7886 26.0943 87.4521 28.3357 87.4521 31.2145C87.4521 34.0814 89.7767 36.2958 92.3248 36.2958C93.5318 36.2958 94.5034 35.7482 95.0071 35.1347H95.0875V35.8679C95.0875 37.816 94.0504 38.8664 92.3785 38.8664C91.0105 38.8664 90.1612 37.8789 89.8155 37.0529L87.8753 37.8669C88.4326 39.2135 89.9198 40.8804 92.3755 40.8804C94.9922 40.8804 97.2095 39.3332 97.2095 35.5597V26.3996H95.0994V27.2405C95.1024 27.2405 95.0875 27.2405 95.0875 27.2405ZM92.5245 34.2938C90.9837 34.2938 89.6963 33.0011 89.6963 31.2145C89.6963 29.413 90.9837 28.1083 92.5245 28.1083C94.0504 28.1083 95.2336 29.428 95.2336 31.2145C95.2485 33.0011 94.0534 34.2938 92.5245 34.2938ZM121.659 21.0011H116.322V35.9996H118.554V30.3198H121.662C124.133 30.3198 126.562 28.5213 126.562 25.6664C126.562 22.8115 124.142 21.0011 121.659 21.0011ZM121.725 28.225H118.551V23.0779H121.725C123.397 23.0779 124.342 24.4634 124.342 25.6514C124.342 26.8275 123.385 28.225 121.725 28.225ZM135.509 26.0794C133.887 26.0794 132.215 26.8006 131.524 28.3716L133.503 29.1976C133.929 28.3716 134.71 28.0903 135.535 28.0903C136.692 28.0903 137.86 28.7846 137.887 30.0235V30.1821C137.487 29.9547 136.611 29.6076 135.562 29.6076C133.425 29.6076 131.259 30.7806 131.259 32.9801C131.259 34.9941 133.011 36.2869 134.963 36.2869C136.462 36.2869 137.288 35.6076 137.803 34.8205H137.884V35.9816H140.036V30.236C140.036 27.5607 138.057 26.0794 135.509 26.0794ZM135.228 34.2938C134.498 34.2938 133.476 33.9347 133.476 33.013C133.476 31.8519 134.752 31.412 135.839 31.412C136.823 31.412 137.288 31.6245 137.872 31.9178C137.711 33.2644 136.579 34.2819 135.228 34.2938ZM147.886 26.3996L145.323 32.9053H145.242L142.587 26.3996H140.185L144.169 35.4938L141.898 40.5482H144.223L150.353 26.3996H147.886ZM127.793 35.9996H130.025V21.0011H127.793V35.9996Z" fill="white"/>
<path fill-rule="evenodd" clip-rule="evenodd" d="M12.4694 9.03978C12.1237 9.41385 11.924 9.98542 11.924 10.7335V37.2682C11.924 38.0163 12.1237 38.5879 12.4813 38.947L12.5737 39.0278L27.3795 24.161V23.8288L12.5618 8.95898L12.4694 9.03978Z" fill="url(#paint0_linear_1926_2719)"/>
<path fill-rule="evenodd" clip-rule="evenodd" d="M32.3057 29.1325L27.3674 24.1739V23.8268L32.3057 18.8682L32.413 18.934L38.2543 22.2677C39.9262 23.2133 39.9262 24.7754 38.2543 25.733L32.413 29.0667L32.3057 29.1325Z" fill="url(#paint1_linear_1926_2719)"/>
<path fill-rule="evenodd" clip-rule="evenodd" d="M32.4131 29.0663L27.3675 24L12.4693 38.9596C13.0147 39.5461 13.9296 39.612 14.9518 39.0404L32.4131 29.0663Z" fill="url(#paint2_linear_1926_2719)"/>
<path fill-rule="evenodd" clip-rule="evenodd" d="M32.4131 18.9339L14.9518 8.97482C13.9296 8.38829 13.0117 8.46909 12.4693 9.05562L27.3675 24.0003L32.4131 18.9339Z" fill="url(#paint3_linear_1926_2719)"/>
<path opacity="0.2" fill-rule="evenodd" clip-rule="evenodd" d="M32.3058 28.958L14.9637 38.8512C13.9951 39.4108 13.1308 39.3719 12.5735 38.8632L12.4811 38.956L12.5735 39.0368C13.1308 39.5425 13.9951 39.5844 14.9637 39.0248L32.425 29.0657L32.3058 28.958Z" fill="black"/>
<path opacity="0.12" fill-rule="evenodd" clip-rule="evenodd" d="M38.2544 25.5591L32.2909 28.9586L32.3982 29.0663L38.2395 25.7327C39.0769 25.2539 39.4882 24.6254 39.4882 24C39.4375 24.5746 39.0114 25.1192 38.2544 25.5591Z" fill="black"/>
<path opacity="0.25" fill-rule="evenodd" clip-rule="evenodd" d="M14.9519 9.14776L38.2544 22.4405C39.0114 22.8685 39.4376 23.4281 39.5032 23.9996C39.5032 23.3742 39.0919 22.7458 38.2544 22.267L14.9519 8.97419C13.28 8.01359 11.924 8.81559 11.924 10.7338V10.9074C11.924 8.98616 13.28 8.19913 14.9519 9.14776Z" fill="white"/>
</g>
<defs>
<linearGradient id="paint0_linear_1926_2719" x1="26.0515" y1="10.4473" x2="2.32219" y2="16.744" gradientUnits="userSpaceOnUse">
<stop stop-color="#00A0FF"/>
<stop offset="0.00657" stop-color="#00A1FF"/>
<stop offset="0.2601" stop-color="#00BEFF"/>
<stop offset="0.5122" stop-color="#00D2FF"/>
<stop offset="0.7604" stop-color="#00DFFF"/>
<stop offset="1" stop-color="#00E3FF"/>
</linearGradient>
<linearGradient id="paint1_linear_1926_2719" x1="40.4347" y1="24.0004" x2="11.5174" y2="24.0004" gradientUnits="userSpaceOnUse">
<stop stop-color="#FFE000"/>
<stop offset="0.4087" stop-color="#FFBD00"/>
<stop offset="0.7754" stop-color="#FFA500"/>
<stop offset="1" stop-color="#FF9C00"/>
</linearGradient>
<linearGradient id="paint2_linear_1926_2719" x1="29.6695" y1="26.7568" x2="10.5142" y2="58.8646" gradientUnits="userSpaceOnUse">
<stop stop-color="#FF3A44"/>
<stop offset="1" stop-color="#C31162"/>
</linearGradient>
<linearGradient id="paint3_linear_1926_2719" x1="8.71776" y1="0.21481" x2="17.2637" y2="14.5547" gradientUnits="userSpaceOnUse">
<stop stop-color="#32A071"/>
<stop offset="0.0685" stop-color="#2DA771"/>
<stop offset="0.4762" stop-color="#15CF74"/>
<stop offset="0.8009" stop-color="#06E775"/>
<stop offset="1" stop-color="#00F076"/>
</linearGradient>
<clipPath id="clip0_1926_2719">
<rect width="162" height="48" fill="white"/>
</clipPath>
</defs>
</svg>
